<svg xmlns="http://www.w3.org/2000/svg" fill="none" viewBox="0 0 80 80" id="Openai-Icon--Streamline-Svg-Logos" height="80" width="80"><desc>Openai Icon Streamline Icon: https://streamlinehq.com</desc><path fill="#000000" d="M73.55850000000001 32.8885c1.7718333333333334 -5.335916666666667 1.1585 -11.176583333333333 -1.6831666666666667 -16.028C67.60266666666666 9.423083333333334 59.015 5.5973 50.628166666666665 7.394966666666667c-4.726333333333334 -5.2572833333333335 -11.897583333333335 -7.595095000000001 -18.81425 -6.133416666666667C24.897166666666667 2.7232333333333334 19.284916666666668 7.762525 17.089666666666666 14.482500000000002c-5.509083333333334 1.12975 -10.26395 4.579166666666667 -13.047858333333334 9.4655C-0.2774491666666667 31.373416666666667 0.7029091666666667 40.73983333333334 6.466083333333334 47.10991666666667c-1.7785583333333332 5.3335 -1.1707750000000001 11.174916666666668 1.6676583333333332 16.028083333333335C12.411833333333334 70.57791666666667 21.005083333333335 74.40341666666667 29.396416666666667 72.60350000000001c3.732416666666667 4.202916666666667 9.094583333333334 6.594250000000001 14.7155 6.562833333333334 8.596583333333333 0.007666666666666667 16.212416666666666 -5.541916666666666 18.838416666666667 -13.727583333333333 5.50825 -1.1316666666666668 10.262416666666667 -4.5805 13.047833333333335 -9.4655 4.267083333333334 -7.41225 3.282583333333333 -16.728166666666667 -2.4396666666666667 -23.08475ZM44.111916666666666 74.03958333333334c-3.43125 0.005416666666666667 -6.755 -1.1972500000000001 -9.388250000000001 -3.3970833333333337l0.46316666666666667 -0.2625 15.59575 -9.002333333333333c0.7895833333333334 -0.46308333333333335 1.2766666666666668 -1.3081666666666667 1.2815833333333335 -2.2235V37.16575l6.593416666666666 3.8140000000000005c0.066 0.033666666666666664 0.11191666666666668 0.09675 0.12358333333333332 0.16983333333333334v18.22075c-0.017 8.0945 -6.574666666666666 14.65225 -14.669250000000002 14.669250000000002ZM12.580833333333333 60.57475c-1.7207500000000002 -2.9713333333333334 -2.3385833333333332 -6.45425 -1.7448333333333332 -9.836083333333335l0.46316666666666667 0.2779166666666667 15.611166666666668 9.00225c0.7865833333333333 0.4615833333333333 1.7612500000000002 0.4615833333333333 2.547833333333333 0l19.07 -10.994166666666667v7.612583333333333c-0.0035833333333333333 0.07983333333333334 -0.043416666666666666 0.15375 -0.10808333333333335 0.20066666666666666L32.623583333333336 65.94833333333334c-7.019416666666666 4.043833333333334 -15.987666666666666 1.6394166666666667 -20.04275 -5.373583333333333Zm-4.1074166666666665 -33.97083333333334c1.73275 -2.9905 4.467666666666667 -5.271416666666667 7.720666666666666 -6.439v18.5295c-0.011916666666666667 0.9118333333333334 0.47325 1.7579166666666668 1.2661666666666669 2.2081666666666666l18.977333333333334 10.947833333333334 -6.593416666666666 3.8140000000000005c-0.07241666666666667 0.03841666666666667 -0.15916666666666668 0.03841666666666667 -0.23158333333333334 0L13.847 46.569500000000005c-7.005658333333335 -4.060666666666667 -9.408275 -13.022166666666667 -5.373583333333333 -20.04275v0.07716666666666668Zm54.168083333333335 12.584666666666667 -19.03916666666667 -11.056000000000001 6.578 -3.7985c0.07241666666666667 -0.0385 0.15925 -0.0385 0.2316666666666667 0L66.1775 33.44441666666667c4.920583333333334 2.839416666666667 7.75925 8.264583333333334 7.286666666666667 13.925916666666666 -0.4725833333333334 5.661333333333333 -4.1715 10.54075 -9.494750000000002 12.525V41.365833333333335c-0.02766666666666667 -0.9091666666666667 -0.5322500000000001 -1.7365000000000002 -1.3279166666666666 -2.17725Zm6.5625 -9.867 -0.46325 -0.2779166666666667L53.1605 19.964166666666667c-0.7913333333333333 -0.4643333333333334 -1.7719166666666668 -0.4643333333333334 -2.56325 0L31.54275 30.958333333333332v-7.6125c-0.00825 -0.07883333333333334 0.02725 -0.15591666666666668 0.09266666666666666 -0.20075l15.765500000000001 -9.094916666666666c4.9325833333333335 -2.8415833333333333 11.063166666666667 -2.576416666666667 15.731916666666667 0.6805 4.668833333333334 3.2569166666666667 7.034666666666666 8.918750000000001 6.071166666666667 14.529166666666667v0.06175ZM27.94491666666667 42.81725l-6.593416666666666 -3.7985c-0.06666666666666667 -0.04041666666666667 -0.11191666666666668 -0.10825 -0.12358333333333332 -0.18533333333333332V20.659000000000002c0.007583333333333334 -5.691416666666667 3.3030833333333334 -10.866 8.4575 -13.279483333333333 5.154333333333334 -2.4135250000000004 11.239166666666668 -1.6313166666666667 15.615500000000003 2.0074l-0.46325 0.2625L29.242000000000004 18.651666666666667c-0.7895833333333334 0.46316666666666667 -1.2766666666666668 1.3081666666666667 -1.2816666666666667 2.2235833333333335l-0.015416666666666667 21.942Zm3.5823333333333336 -7.720583333333333 8.492750000000001 -4.894916666666667 8.508166666666666 4.894916666666667v9.78975l-8.477250000000002 4.894833333333334 -8.508166666666666 -4.894833333333334 -0.0155 -9.78975Z" stroke-width="0.8333"></path></svg>